#tb 0: 1/25
0,          0,          0,        1,   345600, 0xa9cb7e5a
0,          1,          1,        1,   345600, 0x73e47555
0,          2,          2,        1,   345600, 0x87aac593
